<?xml version="1.0" encoding="UTF-8"?> <svg xmlns="http://www.w3.org/2000/svg" viewBox="0 0 24 24" height="32" width="32"><g><path d="M22.29,9a1,1,0,0,0,.9-1.33A12,12,0,0,0,11.94,0C1.52.71,0,9.32,0,12A12,12,0,0,0,11.16,24a1.19,1.19,0,0,0,1.11-.64h0a1.19,1.19,0,0,0-.32-1.5,10.54,10.54,0,0,1-3.27-4,.3.3,0,0,1,0-.21.27.27,0,0,1,.15-.13,1,1,0,0,0,.68-.94,1,1,0,0,0-1-1H8.1a.26.26,0,0,1-.25-.2A14.91,14.91,0,0,1,7.5,12a15.92,15.92,0,0,1,.25-2.8A.26.26,0,0,1,8,9C18.9,9,21.57,9,22.29,9ZM2.82,15.5a.26.26,0,0,1-.24-.17A9.92,9.92,0,0,1,2,12a9.71,9.71,0,0,1,.41-2.82A.25.25,0,0,1,2.65,9h2.8a.26.26,0,0,1,.25.29A17.5,17.5,0,0,0,5.5,12a16.58,16.58,0,0,0,.3,3.2.26.26,0,0,1-.06.21.28.28,0,0,1-.19.09ZM8,20.66A.24.24,0,0,1,8,21a.25.25,0,0,1-.3.07,10.15,10.15,0,0,1-3.8-3.13.27.27,0,0,1,0-.26.25.25,0,0,1,.23-.14H6.22a.25.25,0,0,1,.24.16A13,13,0,0,0,8,20.66ZM6.3,6.83A.26.26,0,0,1,6.06,7H3.8a.25.25,0,0,1-.22-.13.27.27,0,0,1,0-.26A10,10,0,0,1,7.73,3,.25.25,0,0,1,8,3.34,13.21,13.21,0,0,0,6.3,6.83ZM8.72,7a.26.26,0,0,1-.21-.11.29.29,0,0,1,0-.24,10.12,10.12,0,0,1,3.36-4.38.26.26,0,0,1,.29,0A10.11,10.11,0,0,1,15.5,6.65a.23.23,0,0,1,0,.24.25.25,0,0,1-.21.11Zm9.22,0a.26.26,0,0,1-.24-.17,13.13,13.13,0,0,0-1.77-3.52.24.24,0,0,1,0-.31.25.25,0,0,1,.29-.07,10,10,0,0,1,4.2,3.68.24.24,0,0,1,0,.26.25.25,0,0,1-.22.13Z" fill="#1e1e2f"></path><path d="M21.18,19.76a.25.25,0,0,1,0-.31A5.45,5.45,0,0,0,22,16.5a5.5,5.5,0,1,0-2.55,4.64.24.24,0,0,1,.31,0l2.54,2.54a1,1,0,1,0,1.41-1.42ZM16.5,13A3.5,3.5,0,1,1,13,16.5,3.5,3.5,0,0,1,16.5,13Z" fill="#1e1e2f"></path></g></svg> 