<?xml version="1.0" encoding="UTF-8"?> <svg xmlns="http://www.w3.org/2000/svg" id="Capa_2" viewBox="0 0 112.97 112.97"><defs><style>.cls-1{fill:#1e1e2f;}</style></defs><g id="Capa_1-2"><path class="cls-1" d="m60.97,37.91c-3.7-.56-7.51-.44-11.28-.54-1.15-.03-1.5.82-1.5,1.88,0,11.5,0,23.01,0,34.51,0,1.31.61,1.86,1.9,1.82,1.43-.04,2.86,0,4.29,0h0c1.32-.01,2.64.06,3.95-.02,5.26-.34,9.6-2.38,12.55-6.92,4.29-6.62,4.56-13.6,1.81-20.83-2.08-5.46-5.93-9.01-11.72-9.89Z"></path><path class="cls-1" d="m56.5,14.69c-23.07-.1-41.67,18.61-41.64,41.7.03,22.97,18.69,41.61,41.69,41.47,23.11-.14,41.45-18.38,41.48-41.53.03-23.24-18.41-41.55-41.53-41.65Zm22.96,48.85c-2.16,8.7-9.88,17.66-20.63,17.47-4.35-.08-8.7.13-13.04.16-2.99.03-3.33-.35-3.34-3.35,0-7.16,0-14.31,0-21.47,0-7.21,0-14.43,0-21.64,0-2.51.51-3.07,2.99-3.04,5.03.05,10.09-.12,15.09.31,9.8.84,17.42,8.46,19.01,18.15.75,4.52,1.03,8.93-.08,13.41Z"></path><path class="cls-1" d="m56.48,0C25.29,0,0,25.29,0,56.48s25.29,56.48,56.48,56.48,56.48-25.29,56.48-56.48S87.68,0,56.48,0Zm-.35,103.64c-26.01-.03-47.31-21.58-47.02-47.49.01-26.17,21.19-47.25,47.46-47.24,26.07.01,47.3,21.35,47.29,47.51-.02,26.13-21.36,47.24-47.73,47.22Z"></path></g></svg> 