<?xml version="1.0" encoding="UTF-8"?> <svg xmlns="http://www.w3.org/2000/svg" fill="none" viewBox="0 0 24 24" stroke-width="1.5"><path stroke="#171726" stroke-linecap="round" stroke-linejoin="round" d="M12 14.25H13.5"></path><path stroke="#171726" stroke-linecap="round" stroke-linejoin="round" d="M16.5 14.25H18"></path><path stroke="#171726" d="M6.75 14.625C6.54289 14.625 6.375 14.4571 6.375 14.25C6.375 14.0429 6.54289 13.875 6.75 13.875"></path><path stroke="#171726" d="M6.75 14.625C6.95711 14.625 7.125 14.4571 7.125 14.25C7.125 14.0429 6.95711 13.875 6.75 13.875"></path><path stroke="#171726" d="M6.75 20.625C6.54289 20.625 6.375 20.4571 6.375 20.25C6.375 20.0429 6.54289 19.875 6.75 19.875"></path><path stroke="#171726" d="M6.75 20.625C6.95711 20.625 7.125 20.4571 7.125 20.25C7.125 20.0429 6.95711 19.875 6.75 19.875"></path><path stroke="#171726" stroke-linecap="round" stroke-linejoin="round" d="M12 20.25H13.5"></path><path stroke="#171726" stroke-linecap="round" stroke-linejoin="round" d="M16.5 20.25H18"></path><path stroke="#171726" stroke-linecap="round" stroke-linejoin="round" d="M21 14.25C21 15.0456 20.6839 15.8087 20.1213 16.3713C19.5587 16.9339 18.7956 17.25 18 17.25H6C5.20435 17.25 4.44129 16.9339 3.87868 16.3713C3.31607 15.8087 3 15.0456 3 14.25C3 13.4544 3.31607 12.6913 3.87868 12.1287C4.44129 11.5661 5.20435 11.25 6 11.25H18C18.7956 11.25 19.5587 11.5661 20.1213 12.1287C20.6839 12.6913 21 13.4544 21 14.25Z"></path><path stroke="#171726" stroke-linecap="round" stroke-linejoin="round" d="M21 20.25C21 21.0456 20.6839 21.8087 20.1213 22.3713C19.5587 22.9339 18.7956 23.25 18 23.25H6C5.20435 23.25 4.44129 22.9339 3.87868 22.3713C3.31607 21.8087 3 21.0456 3 20.25C3 19.4544 3.31607 18.6913 3.87868 18.1287C4.44129 17.5661 5.20435 17.25 6 17.25H18C18.7956 17.25 19.5587 17.5661 20.1213 18.1287C20.6839 18.6913 21 19.4544 21 20.25Z"></path><path stroke="#171726" stroke-linecap="round" stroke-linejoin="round" d="M23.1201 12.0251C23.2886 11.3096 23.2932 10.5653 23.1336 9.84771C22.974 9.13017 22.6542 8.45798 22.1982 7.8814C21.7423 7.30483 21.1619 6.83877 20.5004 6.51807C19.839 6.19738 19.1136 6.03033 18.3785 6.02943C17.3912 6.02914 16.4275 6.33075 15.6165 6.89381C15.4257 5.8527 15.0166 4.8638 14.416 3.99223C13.8155 3.12065 13.0371 2.38617 12.1322 1.83713C11.2273 1.2881 10.2164 0.936964 9.16594 0.806847C8.11553 0.67673 7.04946 0.770582 6.03794 1.08223C5.02641 1.39387 4.09237 1.91623 3.2973 2.61493C2.50224 3.31362 1.86418 4.1728 1.42515 5.1359C0.986111 6.09899 0.756053 7.14416 0.750118 8.20259C0.744183 9.26102 0.962506 10.3087 1.39071 11.2767"></path></svg> 