<?xml version="1.0" encoding="UTF-8"?> <svg xmlns="http://www.w3.org/2000/svg" fill="none" viewBox="0 0 24 24" stroke-width="1.5"><path stroke="#171726" stroke-linecap="round" stroke-linejoin="round" d="M0.750977 14.2502V23.2502"></path><path stroke="#171726" stroke-linecap="round" stroke-linejoin="round" d="M0.750977 21.7502H15.751C15.751 20.9546 15.4349 20.1915 14.8723 19.6289C14.3097 19.0663 13.5466 18.7502 12.751 18.7502H8.99998C8.99998 17.9546 8.68391 17.1915 8.1213 16.6289C7.55869 16.0663 6.79563 15.7502 5.99998 15.7502H0.750977"></path><path stroke="#171726" stroke-linecap="round" stroke-linejoin="round" d="M6.00098 18.7502H9.00098"></path><path stroke="#171726" stroke-linecap="round" stroke-linejoin="round" d="M14.251 3.75024H18.751"></path><path stroke="#171726" stroke-linecap="round" stroke-linejoin="round" d="M14.251 9.75024H18.751"></path><path stroke="#171726" stroke-linecap="round" stroke-linejoin="round" d="M23.251 3.75024C23.251 4.54589 22.9349 5.30896 22.3723 5.87156C21.8097 6.43417 21.0466 6.75024 20.251 6.75024H8.25098C7.45533 6.75024 6.69227 6.43417 6.12966 5.87156C5.56705 5.30896 5.25098 4.54589 5.25098 3.75024C5.25098 2.95459 5.56705 2.19153 6.12966 1.62892C6.69227 1.06631 7.45533 0.750244 8.25098 0.750244H20.251C21.0466 0.750244 21.8097 1.06631 22.3723 1.62892C22.9349 2.19153 23.251 2.95459 23.251 3.75024V3.75024Z"></path><path stroke="#171726" stroke-linecap="round" stroke-linejoin="round" d="M23.251 9.75024C23.251 10.5459 22.9349 11.309 22.3723 11.8716C21.8097 12.4342 21.0466 12.7502 20.251 12.7502H8.25098C7.45533 12.7502 6.69227 12.4342 6.12966 11.8716C5.56705 11.309 5.25098 10.5459 5.25098 9.75024C5.25098 8.95459 5.56705 8.19153 6.12966 7.62892C6.69227 7.06631 7.45533 6.75024 8.25098 6.75024H20.251C21.0466 6.75024 21.8097 7.06631 22.3723 7.62892C22.9349 8.19153 23.251 8.95459 23.251 9.75024V9.75024Z"></path><path stroke="#171726" d="M9 4.12524C8.79289 4.12524 8.625 3.95735 8.625 3.75024C8.625 3.54314 8.79289 3.37524 9 3.37524"></path><path stroke="#171726" d="M9 4.12524C9.20711 4.12524 9.375 3.95735 9.375 3.75024C9.375 3.54314 9.20711 3.37524 9 3.37524"></path><g><path stroke="#171726" d="M9 10.1252C8.79289 10.1252 8.625 9.95735 8.625 9.75024C8.625 9.54314 8.79289 9.37524 9 9.37524"></path><path stroke="#171726" d="M9 10.1252C9.20711 10.1252 9.375 9.95735 9.375 9.75024C9.375 9.54314 9.20711 9.37524 9 9.37524"></path></g></svg> 