<?xml version="1.0" encoding="UTF-8"?> <svg xmlns="http://www.w3.org/2000/svg" fill="none" viewBox="0 0 24 24" stroke-width="1.5"><path stroke="#171726" stroke-linecap="round" stroke-linejoin="round" d="M12.751 15.0002C13.5466 15.0002 14.3097 15.3163 14.8723 15.8789C15.4349 16.4415 15.751 17.2046 15.751 18.0002C15.751 18.7959 15.4349 19.559 14.8723 20.1216C14.3097 20.6842 13.5466 21.0002 12.751 21.0002H3.75098C2.95533 21.0002 2.19227 20.6842 1.62966 20.1216C1.06705 19.559 0.750977 18.7959 0.750977 18.0002C0.750977 17.2046 1.06705 16.4415 1.62966 15.8789C2.19227 15.3163 2.95533 15.0002 3.75098 15.0002H12.751Z"></path><path stroke="#171726" stroke-linecap="round" stroke-linejoin="round" d="M15.751 12.0002C15.751 12.7959 15.4349 13.559 14.8723 14.1216C14.3097 14.6842 13.5466 15.0002 12.751 15.0002H3.75098C2.95533 15.0002 2.19227 14.6842 1.62966 14.1216C1.06705 13.559 0.750977 12.7959 0.750977 12.0002C0.750977 11.2046 1.06705 10.4415 1.62966 9.87892C2.19227 9.31631 2.95533 9.00024 3.75098 9.00024H12.751C13.5466 9.00024 14.3097 9.31631 14.8723 9.87892C15.4349 10.4415 15.751 11.2046 15.751 12.0002V12.0002Z"></path><path stroke="#171726" stroke-linecap="round" stroke-linejoin="round" d="M15.751 6.00024C15.751 6.79589 15.4349 7.55896 14.8723 8.12156C14.3097 8.68417 13.5466 9.00024 12.751 9.00024H3.75098C2.95533 9.00024 2.19227 8.68417 1.62966 8.12156C1.06705 7.55896 0.750977 6.79589 0.750977 6.00024C0.750977 5.20459 1.06705 4.44153 1.62966 3.87892C2.19227 3.31631 2.95533 3.00024 3.75098 3.00024H12.751C13.5466 3.00024 14.3097 3.31631 14.8723 3.87892C15.4349 4.44153 15.751 5.20459 15.751 6.00024V6.00024Z"></path><path stroke="#171726" stroke-linecap="round" stroke-linejoin="round" d="M9.00098 6.00024H12.751"></path><path stroke="#171726" stroke-linecap="round" stroke-linejoin="round" d="M9.00098 12.0002H12.751"></path><path stroke="#171726" stroke-linecap="round" stroke-linejoin="round" d="M9.00098 18.0002H12.751"></path><path stroke="#171726" stroke-linecap="round" stroke-linejoin="round" d="M18.751 7.50024H21C21.5967 7.50024 22.169 7.7373 22.591 8.15925C23.0129 8.58121 23.25 9.15351 23.25 9.75024C23.25 10.347 23.0129 10.9193 22.591 11.3412C22.169 11.7632 21.5967 12.0002 21 12.0002H18.75"></path><path stroke="#171726" stroke-linecap="round" stroke-linejoin="round" d="M18.751 12.0002H21C21.5967 12.0002 22.169 12.2373 22.591 12.6593C23.0129 13.0812 23.25 13.6535 23.25 14.2502C23.25 14.847 23.0129 15.4193 22.591 15.8412C22.169 16.2632 21.5967 16.5002 21 16.5002H18.75"></path><path stroke="#171726" stroke-linecap="round" stroke-linejoin="round" d="M18.751 16.5002H21C21.2955 16.5002 21.5881 16.5584 21.861 16.6715C22.134 16.7846 22.3821 16.9503 22.591 17.1593C22.7999 17.3682 22.9657 17.6162 23.0787 17.8892C23.1918 18.1622 23.25 18.4548 23.25 18.7502C23.25 19.0457 23.1918 19.3383 23.0787 19.6113C22.9657 19.8843 22.7999 20.1323 22.591 20.3412C22.3821 20.5502 22.134 20.7159 21.861 20.829C21.5881 20.942 21.2955 21.0002 21 21.0002H18.75"></path><path stroke="#171726" d="M3.75098 6.37524C3.54387 6.37524 3.37598 6.20735 3.37598 6.00024C3.37598 5.79314 3.54387 5.62524 3.75098 5.62524"></path><path stroke="#171726" d="M3.75098 6.37524C3.95808 6.37524 4.12598 6.20735 4.12598 6.00024C4.12598 5.79314 3.95808 5.62524 3.75098 5.62524"></path><path stroke="#171726" d="M3.75098 12.3752C3.54387 12.3752 3.37598 12.2074 3.37598 12.0002C3.37598 11.7931 3.54387 11.6252 3.75098 11.6252"></path><path stroke="#171726" d="M3.75098 12.3752C3.95808 12.3752 4.12598 12.2074 4.12598 12.0002C4.12598 11.7931 3.95808 11.6252 3.75098 11.6252"></path><g><path stroke="#171726" d="M3.75098 18.3752C3.54387 18.3752 3.37598 18.2074 3.37598 18.0002C3.37598 17.7931 3.54387 17.6252 3.75098 17.6252"></path><path stroke="#171726" d="M3.75098 18.3752C3.95808 18.3752 4.12598 18.2074 4.12598 18.0002C4.12598 17.7931 3.95808 17.6252 3.75098 17.6252"></path></g></svg> 