<?xml version="1.0" encoding="UTF-8"?> <svg xmlns="http://www.w3.org/2000/svg" viewBox="0 0 24 24" height="32" width="32"><g><path d="M23.17,7.62A12,12,0,0,0,11.94,0,12.27,12.27,0,0,0,0,11.09,12,12,0,0,0,11.25,24a.9.9,0,0,0,.91-.63h0a.93.93,0,0,0-.28-1,19.12,19.12,0,0,1-3.2-4.58.25.25,0,0,1,.15-.34,1,1,0,0,0-.33-1.94H8.1a.26.26,0,0,1-.25-.19A15,15,0,0,1,7.5,12a15.72,15.72,0,0,1,.25-2.79A.27.27,0,0,1,8,9C18.54,9,21.45,9,22.27,9A.93.93,0,0,0,23.17,7.62ZM2.82,15.51a.26.26,0,0,1-.24-.17A9.92,9.92,0,0,1,2,12a9.76,9.76,0,0,1,.41-2.82A.25.25,0,0,1,2.65,9h2.8a.23.23,0,0,1,.19.09.24.24,0,0,1,.06.2A17.59,17.59,0,0,0,5.5,12a16.58,16.58,0,0,0,.3,3.2.26.26,0,0,1-.06.21.25.25,0,0,1-.19.09ZM8,20.67A.24.24,0,0,1,8,21a.25.25,0,0,1-.3.07,10.15,10.15,0,0,1-3.8-3.13.27.27,0,0,1,0-.26.25.25,0,0,1,.23-.14H6.22a.27.27,0,0,1,.24.16A12.74,12.74,0,0,0,8,20.67ZM6.3,6.84A.26.26,0,0,1,6.06,7H3.8a.25.25,0,0,1-.21-.38A10,10,0,0,1,7.73,3a.24.24,0,0,1,.3.07.24.24,0,0,1,0,.3A13.21,13.21,0,0,0,6.3,6.84ZM8.72,7a.26.26,0,0,1-.21-.11.27.27,0,0,1,0-.23,10.17,10.17,0,0,1,3.36-4.39.26.26,0,0,1,.29,0A10.16,10.16,0,0,1,15.5,6.67a.21.21,0,0,1,0,.23.25.25,0,0,1-.21.11Zm9.22,0a.26.26,0,0,1-.24-.17,13.13,13.13,0,0,0-1.77-3.52.24.24,0,0,1,.3-.37,9.83,9.83,0,0,1,4.2,3.68.25.25,0,0,1-.21.38Z" fill="#1e1e2f"></path><path d="M17.63,10.77A6.37,6.37,0,1,0,24,17.14,6.37,6.37,0,0,0,17.63,10.77Zm-2.45,7.12a.75.75,0,0,1,0-1.5h1.45a.25.25,0,0,0,.25-.25V14.69a.75.75,0,0,1,1.5,0v1.45a.25.25,0,0,0,.25.25h1.45a.75.75,0,0,1,0,1.5H18.63a.25.25,0,0,0-.25.25v1.44a.75.75,0,0,1-1.5,0V18.14a.25.25,0,0,0-.25-.25Z" fill="#1e1e2f"></path></g></svg> 