<?xml version="1.0" encoding="UTF-8"?> <svg xmlns="http://www.w3.org/2000/svg" fill="none" viewBox="0 0 24 24" stroke-width="1.5"><path stroke="#171726" stroke-linecap="round" stroke-linejoin="round" d="M9.75098 3.75024H11.251"></path><path stroke="#171726" stroke-linecap="round" stroke-linejoin="round" d="M14.251 3.75024H15.751"></path><path stroke="#171726" stroke-linecap="round" stroke-linejoin="round" d="M9.75098 9.75024H11.251"></path><path stroke="#171726" stroke-linecap="round" stroke-linejoin="round" d="M14.251 9.75024H15.001"></path><path stroke="#171726" stroke-linecap="round" stroke-linejoin="round" d="M4.50098 18.7502H8.25098V12.7502"></path><path stroke="#171726" stroke-linecap="round" stroke-linejoin="round" d="M18.751 3.75024C18.751 4.54589 18.4349 5.30896 17.8723 5.87156C17.3097 6.43417 16.5466 6.75024 15.751 6.75024H3.75098C2.95533 6.75024 2.19227 6.43417 1.62966 5.87156C1.06705 5.30896 0.750977 4.54589 0.750977 3.75024C0.750977 2.95459 1.06705 2.19153 1.62966 1.62892C2.19227 1.06631 2.95533 0.750244 3.75098 0.750244H15.751C16.5466 0.750244 17.3097 1.06631 17.8723 1.62892C18.4349 2.19153 18.751 2.95459 18.751 3.75024V3.75024Z"></path><path stroke="#171726" stroke-linecap="round" stroke-linejoin="round" d="M9.75098 12.7502H3.75098C2.95533 12.7502 2.19227 12.4342 1.62966 11.8716C1.06705 11.309 0.750977 10.5459 0.750977 9.75025C0.750977 8.9546 1.06705 8.19153 1.62966 7.62892C2.19227 7.06632 2.95533 6.75025 3.75098 6.75025H15.751C16.1918 6.7499 16.6272 6.84688 17.0261 7.03426C17.4251 7.22164 17.7778 7.49481 18.059 7.83425"></path><path stroke="#171726" stroke-linecap="round" stroke-linejoin="round" d="M17.9444 11.6803L19.4854 15.7503H22.4854C22.6367 15.7443 22.7861 15.7853 22.9133 15.8675C23.0404 15.9497 23.1391 16.0691 23.1958 16.2095C23.2525 16.3499 23.2644 16.5044 23.23 16.6519C23.1955 16.7993 23.1164 16.9325 23.0034 17.0333L20.4034 18.8483L21.8454 22.1623C21.9084 22.314 21.9223 22.4817 21.885 22.6417C21.8478 22.8017 21.7614 22.946 21.6379 23.0544C21.5144 23.1627 21.3601 23.2297 21.1966 23.2458C21.0331 23.2619 20.8687 23.2264 20.7264 23.1443L17.2404 21.1833L13.7534 23.1443C13.6111 23.2264 13.4467 23.2619 13.2832 23.2458C13.1197 23.2297 12.9654 23.1627 12.8419 23.0544C12.7184 22.946 12.632 22.8017 12.5948 22.6417C12.5576 22.4817 12.5714 22.314 12.6344 22.1623L14.0774 18.8483L11.4774 17.0333C11.3641 16.9329 11.2845 16.8 11.2497 16.6526C11.2148 16.5053 11.2264 16.3508 11.2828 16.2103C11.3392 16.0698 11.4377 15.9502 11.5647 15.8678C11.6917 15.7855 11.8411 15.7444 11.9924 15.7503H14.9924L16.5364 11.6803C16.605 11.5533 16.7066 11.4472 16.8305 11.3732C16.9545 11.2993 17.0961 11.2603 17.2404 11.2603C17.3847 11.2603 17.5264 11.2993 17.6503 11.3732C17.7742 11.4472 17.8759 11.5533 17.9444 11.6803Z"></path><path stroke="#171726" d="M4.5 4.12524C4.29289 4.12524 4.125 3.95735 4.125 3.75024C4.125 3.54314 4.29289 3.37524 4.5 3.37524"></path><path stroke="#171726" d="M4.5 4.12524C4.70711 4.12524 4.875 3.95735 4.875 3.75024C4.875 3.54314 4.70711 3.37524 4.5 3.37524"></path><path stroke="#171726" d="M4.5 10.1252C4.29289 10.1252 4.125 9.95735 4.125 9.75024C4.125 9.54314 4.29289 9.37524 4.5 9.37524"></path><path stroke="#171726" d="M4.5 10.1252C4.70711 10.1252 4.875 9.95735 4.875 9.75024C4.875 9.54314 4.70711 9.37524 4.5 9.37524"></path><g><path stroke="#171726" d="M1.12598 18.7502C0.91887 18.7502 0.750977 18.5824 0.750977 18.3752C0.750977 18.1681 0.91887 18.0002 1.12598 18.0002"></path><path stroke="#171726" d="M1.12598 18.7502C1.33308 18.7502 1.50098 18.5824 1.50098 18.3752C1.50098 18.1681 1.33308 18.0002 1.12598 18.0002"></path></g></svg> 