<?xml version="1.0" encoding="UTF-8"?> <svg xmlns="http://www.w3.org/2000/svg" viewBox="0 0 24 24" height="32" width="32"><g><path d="M3.93,17.89a.22.22,0,0,1,0-.26.25.25,0,0,1,.22-.13H6.24a.24.24,0,0,1,.23.16c.17.44.35.87.55,1.28a1,1,0,1,0,1.79-.89l-.09-.21a.27.27,0,0,1,0-.23A.26.26,0,0,1,9,17.5H13a1,1,0,0,0,0-2H8.11a.26.26,0,0,1-.25-.2A15.1,15.1,0,0,1,7.5,12a15.92,15.92,0,0,1,.25-2.8A.26.26,0,0,1,8,9h8a.25.25,0,0,1,.25.2c.07.4.14.81.18,1.25a1,1,0,0,0,2-.19c0-.34-.08-.66-.12-1A.25.25,0,0,1,18.54,9h2.81a.25.25,0,0,1,.24.18,9.25,9.25,0,0,1,.3,1.31,1,1,0,1,0,2-.3C22.39.44,12.59,0,11.93,0A12,12,0,0,0,2.74,19.64a1,1,0,0,0,1.41.13,1,1,0,0,0,.14-1.41A5.32,5.32,0,0,1,3.93,17.89ZM5.79,15.2a.23.23,0,0,1,0,.21.25.25,0,0,1-.19.09H2.81a.25.25,0,0,1-.23-.17A9.89,9.89,0,0,1,2,12a9.71,9.71,0,0,1,.41-2.82A.25.25,0,0,1,2.65,9h2.8a.22.22,0,0,1,.19.09.23.23,0,0,1,.06.2,18.1,18.1,0,0,0,.09,5.91ZM8.72,7a.26.26,0,0,1-.21-.11.29.29,0,0,1,0-.24,10,10,0,0,1,3.37-4.38.26.26,0,0,1,.29,0,10.19,10.19,0,0,1,3.36,4.38.26.26,0,0,1,0,.24.23.23,0,0,1-.2.11Zm11.69-.39a.27.27,0,0,1,0,.26A.25.25,0,0,1,20.2,7H17.94a.25.25,0,0,1-.24-.17A13.52,13.52,0,0,0,16,3.34.24.24,0,0,1,16,3a.26.26,0,0,1,.3-.07A10.25,10.25,0,0,1,20.41,6.61ZM7.73,3A.25.25,0,0,1,8,3.34,13.21,13.21,0,0,0,6.3,6.83.26.26,0,0,1,6.06,7H3.8a.25.25,0,0,1-.22-.13.27.27,0,0,1,0-.26A10,10,0,0,1,7.73,3Z" fill="#1e1e2f"></path><path d="M23.94,16.65l-1.5-4a1,1,0,0,0-.65-.61,1,1,0,0,0-.87.15l-3.5,2.5a1,1,0,0,0-.41,1,1,1,0,0,0,.7.8l1.42.42a.25.25,0,0,1,.16.14.23.23,0,0,1,0,.2A7.68,7.68,0,0,1,12,22a9.94,9.94,0,0,1-5-1.34,1,1,0,1,0-1,1.73A12,12,0,0,0,12,24a9.72,9.72,0,0,0,9.23-6.25.26.26,0,0,1,.31-.15A6,6,0,0,0,23,18a1,1,0,0,0,.73-.32A1,1,0,0,0,23.94,16.65Z" fill="#1e1e2f"></path></g></svg> 