<?xml version="1.0" encoding="UTF-8"?> <svg xmlns="http://www.w3.org/2000/svg" id="Capa_2" viewBox="0 0 94.37 94.37"><defs><style>.cls-1{fill:none;}.cls-2{fill:#1e1e2f;}</style></defs><g id="Capa_1-2"><path class="cls-2" d="m79.62,34.78c-.17-.05-.35-.07-.54-.07-.93,0-2.01.58-2.94,1.6-3.11,3.43-2.67,8.69-1.34,12.16.66,1.73,1.41,2.59,1.81,2.56.66-.06,1.99-.95,3.35-2.75,1.32-1.75,2.36-3.95,2.66-5.62.55-3.06.47-6.91-3-7.88Z"></path><path class="cls-2" d="m55.57,34.78c-.17-.05-.35-.07-.54-.07-.93,0-2.01.58-2.94,1.6-3.12,3.43-2.67,8.69-1.34,12.16.66,1.73,1.41,2.59,1.81,2.56.66-.06,1.99-.95,3.35-2.75,1.32-1.75,2.36-3.95,2.66-5.62.54-3.06.47-6.91-3-7.88Z"></path><path class="cls-2" d="m85.56,19.22H8.8C3.94,19.22,0,23.17,0,28.03v28.9C0,61.79,3.94,65.74,8.8,65.74h36.53l16.19,9.41-3.23-9.41h27.27c4.86,0,8.8-3.94,8.8-8.8v-28.9c0-4.86-3.94-8.8-8.8-8.8Zm-48.9,41.5c-1.2.48-2.57.19-3.48-.72-2.9-2.9-5.55-7.9-7.86-14.86-.1-.3-.2-.6-.29-.89-2.84,5.65-6.57,12.81-8.66,15.73-.61.85-1.59,1.35-2.63,1.35-.01,0-.03,0-.04,0-1.06-.01-2.04-.54-2.64-1.42-.94-1.38-2.32-4.57-4.65-17.05-1.25-6.69-2.19-12.99-2.2-13.05-.26-1.77.96-3.42,2.73-3.68,1.77-.26,3.42.96,3.68,2.73,0,.06.93,6.22,2.15,12.76.71,3.78,1.31,6.6,1.81,8.7,3.05-5.63,6.78-13.19,8.42-16.61.6-1.25,1.93-1.98,3.31-1.81,1.38.17,2.5,1.19,2.78,2.55.54,2.57,1.93,7.91,3.9,12.75.73-6.89,2.14-15.64,4.82-21.15.78-1.61,2.72-2.27,4.33-1.49,1.61.78,2.27,2.72,1.49,4.33-4.27,8.75-4.91,28.7-4.92,28.9-.04,1.29-.84,2.44-2.04,2.91Zm28.28-16.94c-.95,5.34-5.89,13.12-11.77,13.68-.21.02-.43.03-.67.03-2.21,0-5.63-1.04-7.8-6.72-3.17-8.28-.74-15.16,2.6-18.83,2.81-3.1,6.55-4.37,10-3.41,3.03.84,5.34,2.74,6.69,5.47,1.31,2.66,1.63,5.96.95,9.78Zm24.05,0c-.95,5.34-5.89,13.12-11.77,13.68-.21.02-.43.03-.67.03-2.21,0-5.63-1.04-7.8-6.72-3.17-8.28-.74-15.16,2.6-18.83,2.82-3.1,6.56-4.37,10-3.41,1.51.42,2.85,1.11,3.98,2.03,1.12.92,2.04,2.08,2.72,3.45,1.31,2.66,1.63,5.96.95,9.78Z"></path><rect class="cls-1" y="0" width="94.37" height="94.37"></rect></g></svg> 