<?xml version="1.0" encoding="UTF-8"?> <svg xmlns="http://www.w3.org/2000/svg" id="Capa_2" viewBox="0 0 19.64 19.64"><defs><style>.cls-1{fill:#1e1e2f;}</style></defs><g id="Capa_1-2"><path class="cls-1" d="m5.89,6.06h-1.08l2.96,8.36,1.66-4.73-1.28-3.63h-1.14v-.8h5.07v.8h-1.19l2.96,8.36,1.06-3.04c1.39-3.89-1.14-5.1-1.14-5.97s.7-1.57,1.57-1.57c.05,0,.09,0,.14,0-1.47-1.39-3.46-2.24-5.64-2.24-2.85,0-5.36,1.45-6.84,3.66h2.91v.8h0Z"></path><path class="cls-1" d="m1.6,9.82c0,3.15,1.77,5.88,4.36,7.26L2.26,6.6c-.42.99-.66,2.08-.66,3.22Z"></path><path class="cls-1" d="m16.97,5.77c.12.69.08,1.47-.1,2.25h.03l-.12.35h0c-.07.26-.17.52-.27.78l-2.83,7.92c2.59-1.38,4.35-4.11,4.35-7.25,0-1.47-.39-2.85-1.07-4.05Z"></path><path class="cls-1" d="m7.28,17.63c.8.26,1.65.4,2.53.4s1.66-.13,2.42-.36l-2.4-6.79-2.55,6.76Z"></path><path class="cls-1" d="m16.76,2.88c-1.85-1.85-4.32-2.88-6.94-2.88S4.73,1.02,2.88,2.88C1.02,4.73,0,7.2,0,9.82s1.02,5.09,2.88,6.94c1.85,1.85,4.32,2.88,6.94,2.88s5.09-1.02,6.94-2.88c1.85-1.85,2.88-4.32,2.88-6.94,0-2.62-1.02-5.09-2.88-6.94Zm-6.94,16.07C4.79,18.94.69,14.85.69,9.82S4.79.69,9.82.69s9.13,4.09,9.13,9.13-4.09,9.13-9.13,9.13Z"></path></g></svg> 